# xmcd
#
# Track frame offsets: 
#        180
#        17531
#        30433
#        44441
#        58381
#        78807
#        108126
#        127703
#        146399
#        167576
#        170317
#        185874
#        213001
#        219702
#        239040
#        253411
#        278389
#
# Disc length: 4209 seconds
#
# Revision: 0
# Processed by: cddbd v1.5.2PL0 Copyright (c) Steve Scherf et al.
# Submitted via: ExactAudioCopy v0.95b4
#
DISCID=e6106f11
DTITLE=Various Artist - Leave Your Mark (1995)
DYEAR=1995
DGENRE=R&B
TTITLE0=Lazarus Go Home - Soak
TTITLE1=Grendel - There
TTITLE2=Fanny Magnet - Hazel
TTITLE3=Comfort - Introvert
TTITLE4=Boomslang - Flowers in June
TTITLE5=Stillmotion - Inasmuch
TTITLE6=Jack Edward Smith - Haunting
TTITLE7=Creepy Woods - Almost Always
TTITLE8=Leah Wendell - Faith's Song
TTITLE9=(naughty bits)
TTITLE10=Grendel - Migratory Birds
TTITLE11=Boomslang - Fountains and George
TTITLE12=Jack Edward Smith - Bourree
TTITLE13=Stillmotion - Eleftherios
TTITLE14=Lazarus Go Home - Lluvia
TTITLE15=Creepy Woods - Near Monday
TTITLE16=Gregory Paul - Greatest Moments Cannot Be Constructed
EXTD=
EXTT0=
EXTT1=
EXTT2=
EXTT3=
EXTT4=
EXTT5=
EXTT6=
EXTT7=
EXTT8=
EXTT9=
EXTT10=
EXTT11=
EXTT12=
EXTT13=
EXTT14=
EXTT15=
EXTT16=
PLAYORDER=
